HIERARCHY
ROOT Hips
{
	OFFSET 0.00000 0.00000 0.00000
	CHANNELS 6 Xposition Yposition Zposition Zrotation Yrotation Xrotation 
	JOINT LHipJoint
	{
		OFFSET 0 0 0
		CHANNELS 3 Zrotation Yrotation Xrotation
		JOINT LeftHip
		{
			OFFSET 1.29432 -1.88279 0.59910
			CHANNELS 3 Zrotation Yrotation Xrotation
			JOINT LeftKnee
			{
				OFFSET 2.63039 -7.22694 0.00000
				CHANNELS 3 Zrotation Yrotation Xrotation
				JOINT LeftAnkle
				{
					OFFSET 2.70674 -7.43672 0.00000
					CHANNELS 3 Zrotation Yrotation Xrotation
					JOINT LeftToe
					{
						OFFSET 0.15066 -0.41394 2.09027
						CHANNELS 3 Zrotation Yrotation Xrotation
						End Site
						{
							OFFSET 0.00000 -0.00000 1.07518
						}
					}
				}
			}
		}
	}
	JOINT RHipJoint
	{
		OFFSET 0 0 0
		CHANNELS 3 Zrotation Yrotation Xrotation
		JOINT RightHip
		{
			OFFSET -1.37068 -1.88279 0.59910
			CHANNELS 3 Zrotation Yrotation Xrotation
			JOINT RightKnee
			{
				OFFSET -2.57023 -7.06166 0.00000
				CHANNELS 3 Zrotation Yrotation Xrotation
				JOINT RightAnkle
				{
					OFFSET -2.76461 -7.59570 0.00000
					CHANNELS 3 Zrotation Yrotation Xrotation
					JOINT RightToe
					{
						OFFSET -0.24175 -0.64785 2.19719
						CHANNELS 3 Zrotation Yrotation Xrotation
						End Site
						{
							OFFSET -0.00000 -0.00000 1.14803
						}
					}
				}
			}
		}
	}
	JOINT lowerback
	{
		OFFSET 0 0 0
		CHANNELS 3 Zrotation Yrotation Xrotation
		JOINT Chest
		{
			OFFSET -0.03138 2.03983 -0.23106
			CHANNELS 3 Zrotation Yrotation Xrotation
			JOINT Chest2
			{
				OFFSET -0.00325 2.06238 -0.06878
				CHANNELS 3 Zrotation Yrotation Xrotation
				JOINT lowerneck
				{
					OFFSET 0 0 0
					CHANNELS 3 Zrotation Yrotation Xrotation
					JOINT Neck
					{
						OFFSET -0.00002 1.75318 0.18090
						CHANNELS 3 Zrotation Yrotation Xrotation
						JOINT Head
						{
							OFFSET 0.08806 1.75856 -0.25387
							CHANNELS 3 Zrotation Yrotation Xrotation
							End Site
							{
								OFFSET 0.02554 1.78597 -0.10684
							}
						}
					}
				}
				JOINT LeftCollar
				{
					OFFSET 0 0 0
					CHANNELS 3 Zrotation Yrotation Xrotation
					JOINT LeftShoulder
					{
						OFFSET 3.09657 1.33597 -0.04414
CHANNELS 3 Zrotation Xrotation Yrotation
						JOINT LeftElbow
						{
OFFSET 0 -5.342980 -0.000000
CHANNELS 3 Zrotation Xrotation Yrotation
							JOINT LeftWrist
							{
OFFSET 0 -3.672620 -0.000000
CHANNELS 3 Zrotation Xrotation Yrotation
								JOINT lhand
								{
									OFFSET 0 0 0
CHANNELS 3 Zrotation Xrotation Yrotation
									JOINT LFingers
									{
OFFSET 0 -0.599300 -0.000000
CHANNELS 3 Zrotation Xrotation Yrotation
										End Site
										{
OFFSET 0 -0.483170 -0.000000
										}
									}
								}
								JOINT LThumb
								{
OFFSET 0 0.000000 0.000000
CHANNELS 3 Zrotation Xrotation Yrotation
									End Site
									{
OFFSET 0 -0.490550 0.490550
									}
								}
							}
						}
					}
				}
				JOINT RightCollar
				{
					OFFSET 0 0 0
					CHANNELS 3 Zrotation Yrotation Xrotation
					JOINT RightShoulder
					{
						OFFSET -3.16460 1.32273 -0.23382
CHANNELS 3 Zrotation Xrotation Yrotation
						JOINT RightElbow
						{
OFFSET 0 -5.549670 0.033480
CHANNELS 3 Zrotation Xrotation Yrotation
							JOINT RightWrist
							{
OFFSET 0 -3.694010 0.000000
CHANNELS 3 Zrotation Xrotation Yrotation
								JOINT rhand
								{
									OFFSET 0 0 0
CHANNELS 3 Zrotation Xrotation Yrotation
									JOINT RFingers
									{
OFFSET 0 -0.638110 0.000000
CHANNELS 3 Zrotation Xrotation Yrotation
										End Site
										{
OFFSET 0 -0.514460 0.000000
										}
									}
								}
								JOINT RThumb
								{
OFFSET 0 0.000000 0.000000
CHANNELS 3 Zrotation Xrotation Yrotation
									End Site
									{
OFFSET 0 -0.522320 0.522320
									}
								}
							}
						}
					}
				}
			}
		}
	}
}
MOTION
Frames: 8
Frame Time: 0.008333333333333333
-3.377139 17.857355 -0.899515 -358.645362 27.056667 -367.424983 0.000000 0.000000 0.000000 -11.970149 1.577325 -16.855977 1.515438 7.773968 22.029727 -1.382066 20.273314 -7.057066 0.121228 -2.240016 -6.169607 0.000000 0.000000 0.000000 21.060612 6.018796 -9.619191 -4.192242 -12.411949 37.205303 -1.010414 -7.463463 -23.083028 -0.575431 -4.856717 13.500592 -4.818132 0.838191 0.040043 -5.294697 1.353034 2.556734 -2.733936 0.654417 2.638261 2.752469 2.734215 -16.696261 -1.374832 4.016543 33.718705 -0.329597 1.982982 14.484589 0.000000 0.000000 0.000000 4.228161 -16.295573 -60.673873 129.210286 -53.308910 93.193828 40.579203 -29.803208 -63.545622 0.000000 0.000000 0.000000 -7.125000 0.000000 0.000000 -142.427961 -79.095351 -149.597553 0.000000 0.000000 0.000000 -25.598774 -23.938919 53.146157 -129.663505 -53.130069 -93.556846 -14.684182 -18.697360 6.251339 0.000000 0.000000 0.000000 7.125000 0.000000 0.000000 10.119768 36.279129 2.197729
-3.371483 17.862928 -0.915785 -357.989917 26.786587 -367.255928 0.000000 0.000000 0.000000 -12.485290 1.554617 -16.515020 1.508749 7.757612 21.980228 -1.324845 19.870735 -6.881330 0.203355 -2.875207 -7.933368 0.000000 0.000000 0.000000 20.389769 6.102544 -9.530180 -4.196656 -12.417615 37.225715 -1.008365 -7.276873 -22.929858 -0.563371 -4.807023 13.359171 -5.403090 0.818458 -0.069080 -5.456394 1.351196 2.548236 -2.575264 0.642858 2.685010 2.819945 2.858152 -16.746448 -1.505856 4.227201 33.777547 -0.357360 2.061930 14.534785 0.000000 0.000000 0.000000 4.115618 -16.583940 -60.966264 129.571862 -53.166376 93.483474 42.323859 -27.692831 -64.095216 0.000000 0.000000 0.000000 -7.125000 0.000000 0.000000 -145.957046 -78.390315 -152.992699 0.000000 0.000000 0.000000 -25.880430 -23.952105 52.661024 -130.090708 -52.958348 -93.898150 -14.930375 -18.868289 6.195075 0.000000 0.000000 0.000000 7.125000 0.000000 0.000000 9.906924 36.235513 2.160951
-3.366559 17.869399 -0.932254 -357.390533 26.511130 -367.141738 0.000000 0.000000 0.000000 -12.969054 1.954716 -16.341564 1.511762 7.765025 22.002602 -1.224706 19.136319 -6.589115 0.278925 -3.387243 -9.359635 0.000000 0.000000 0.000000 19.773202 6.123282 -9.411948 -4.193637 -12.413700 37.211600 -0.998091 -7.126553 -22.732476 -0.534551 -4.683916 13.009396 -5.971364 0.808161 -0.111705 -5.596290 1.351178 2.497235 -2.404624 0.633757 2.649888 2.957693 2.976377 -16.652055 -1.761529 4.454967 33.783344 -0.447865 2.141909 14.535202 0.000000 0.000000 0.000000 4.024352 -16.733425 -61.255058 129.919752 -53.027443 93.761697 43.438029 -26.358655 -64.511527 0.000000 0.000000 0.000000 -7.125000 0.000000 0.000000 -148.077787 -77.874739 -155.069072 0.000000 0.000000 0.000000 -26.198377 -23.909465 52.161673 -130.483407 -52.798239 -94.211292 -15.021518 -19.157808 5.883040 0.000000 0.000000 0.000000 7.125000 0.000000 0.000000 9.784251 35.922779 2.209163
-3.361182 17.875839 -0.950379 -356.960416 26.197881 -367.108327 0.000000 0.000000 0.000000 -13.295411 2.570476 -16.324852 1.534305 7.819764 22.168201 -1.107194 18.243190 -6.222773 0.381654 -3.936611 -10.902346 0.000000 0.000000 0.000000 19.327398 6.137896 -9.256287 -4.175575 -12.390371 37.127385 -0.977796 -7.030975 -22.487214 -0.500279 -4.533590 12.583020 -6.376126 0.795359 -0.092190 -5.704088 1.332292 2.387983 -2.293015 0.620342 2.521187 3.144551 3.090779 -16.390923 -2.066891 4.682713 33.734828 -0.570185 2.223852 14.477220 0.000000 0.000000 0.000000 4.002046 -16.770460 -61.544318 130.295863 -52.874987 94.061872 43.690986 -25.974443 -64.755750 0.000000 0.000000 0.000000 -7.125000 0.000000 0.000000 -148.510615 -77.627964 -155.573455 0.000000 0.000000 0.000000 -26.491960 -23.781185 51.714580 -130.908911 -52.621570 -94.549740 -14.773804 -19.449457 5.550016 0.000000 0.000000 0.000000 7.125000 0.000000 0.000000 9.938262 35.570923 2.331828
-3.355000 17.880766 -0.969999 -356.801838 25.800450 -367.176279 0.000000 0.000000 0.000000 -13.332878 3.126466 -16.413913 1.583730 7.939077 22.529385 -1.003229 17.413317 -5.783894 0.561513 -4.796797 -13.330456 0.000000 0.000000 0.000000 19.173750 6.228051 -9.050924 -4.137519 -12.341194 36.949738 -0.947093 -7.014072 -22.206145 -0.463231 -4.365402 12.107216 -6.487120 0.771136 -0.034542 -5.766853 1.282131 2.226924 -2.298735 0.598701 2.321066 3.349722 3.210079 -16.005964 -2.330300 4.898991 33.651019 -0.682682 2.311144 14.375426 0.000000 0.000000 0.000000 4.062421 -16.771663 -61.841732 130.737478 -52.693642 94.413652 43.305715 -26.207317 -64.862839 0.000000 0.000000 0.000000 -7.125000 0.000000 0.000000 -147.863936 -77.602733 -155.070434 0.000000 0.000000 0.000000 -26.706892 -23.563719 51.361409 -131.450801 -52.393181 -94.979830 -14.096544 -19.618964 5.522335 0.000000 0.000000 0.000000 7.125000 0.000000 0.000000 10.491724 35.508414 2.480827
-3.357044 17.875969 -0.978177 -357.842913 25.142072 -368.001119 0.000000 0.000000 0.000000 -12.003384 3.498469 -16.205305 1.641681 8.075817 22.944793 -0.934191 16.823899 -5.619948 0.729705 -5.447941 -15.193068 0.000000 0.000000 0.000000 20.444428 6.634574 -8.424785 -4.088768 -12.277581 36.721157 -0.895747 -7.398500 -22.032999 -0.410627 -4.111502 11.390809 -5.635624 0.757533 0.155037 -5.491487 1.233616 2.356429 -2.487842 0.584390 2.355192 3.507849 3.418530 -16.396367 -2.469556 5.195745 33.749701 -0.708945 2.430821 14.531587 0.000000 0.000000 0.000000 4.044414 -17.272621 -62.110650 131.058528 -52.559340 94.668653 43.777030 -25.341432 -64.853404 0.000000 0.000000 0.000000 -7.125000 0.000000 0.000000 -148.642856 -77.531729 -155.738719 0.000000 0.000000 0.000000 -26.997512 -23.807789 50.880344 -132.005779 -52.153199 -95.418669 -13.411432 -19.921300 5.756498 0.000000 0.000000 0.000000 7.125000 0.000000 0.000000 11.092229 35.709395 2.571489
-3.360861 17.865002 -0.983544 -359.485841 24.360757 -369.163851 0.000000 0.000000 0.000000 -10.004947 3.796906 -15.782779 1.675497 8.154570 23.184533 -0.898331 16.505528 -5.762489 0.728584 -5.452444 -15.203989 0.000000 0.000000 0.000000 22.392358 7.121323 -7.706505 -4.054070 -12.231994 36.557834 -0.847822 -7.839996 -21.940814 -0.347941 -3.783425 10.468916 -4.285965 0.780590 0.389587 -5.010453 1.221945 2.482696 -2.743368 0.596659 2.364205 3.520737 3.565268 -16.548168 -2.546732 5.435429 33.820520 -0.698303 2.520068 14.611860 0.000000 0.000000 0.000000 3.913980 -17.637201 -62.477515 131.346462 -52.437564 94.897074 44.695915 -23.965468 -64.886128 0.000000 0.000000 0.000000 -7.125000 0.000000 0.000000 -150.111187 -77.338949 -157.021322 0.000000 0.000000 0.000000 -27.447730 -23.939738 50.344104 -132.495744 -51.937230 -95.804962 -13.010260 -20.265552 5.658023 0.000000 0.000000 0.000000 7.125000 0.000000 0.000000 11.405434 35.589897 2.681459
-3.359623 17.861879 -0.994899 -360.346651 23.768109 -369.772299 0.000000 0.000000 0.000000 -8.904514 4.001368 -15.509508 1.688005 8.183472 23.272717 -0.877751 16.318318 -5.918180 0.689537 -5.308188 -14.789854 0.000000 0.000000 0.000000 23.419161 7.498738 -7.317558 -4.037430 -12.210013 36.479188 -0.832348 -7.999431 -21.923984 -0.292177 -3.471455 9.594675 -3.633622 0.793902 0.419462 -4.734797 1.221400 2.509338 -2.820952 0.604275 2.378848 3.535584 3.649801 -16.455818 -2.674042 5.603552 33.792994 -0.725586 2.576588 14.591054 0.000000 0.000000 0.000000 3.738856 -17.848581 -62.944435 131.685248 -52.292284 95.165311 45.299823 -22.876538 -64.971396 0.000000 0.000000 0.000000 -7.125000 0.000000 0.000000 -151.046930 -77.157562 -157.870503 0.000000 0.000000 0.000000 -27.960701 -23.957751 49.779798 -132.933326 -51.741143 -96.149081 -12.797785 -20.569422 5.424982 0.000000 0.000000 0.000000 7.125000 0.000000 0.000000 11.541731 35.345003 2.784372
